Coordinates
nRows=4
nColumns=38

# SIMM Motion File Header:
name Coordinates
datacolumns 38
datarows 4
otherdata 1
range 0.33257999999999999000 0.33557999999999999000

Units are S.I. units (second, meters, Newtons, ...)
Angles are in degrees.

endheader
time	pelvis_tilt	pelvis_list	pelvis_rotation	pelvis_tx	pelvis_ty	pelvis_tz	hip_flexion_r	hip_adduction_r	hip_rotation_r	knee_angle_r	ankle_angle_r	subtalar_angle_r	mtp_angle_r	hip_flexion_l	hip_adduction_l	hip_rotation_l	knee_angle_l	ankle_angle_l	subtalar_angle_l	mtp_angle_l	lumbar_extension	lumbar_bending	lumbar_rotation	arm_flex_r	arm_add_r	arm_rot_r	elbow_flex_r	pro_sup_r	wrist_flex_r	wrist_dev_r	arm_flex_l	arm_add_l	arm_rot_l	elbow_flex_l	pro_sup_l	wrist_flex_l	wrist_dev_l
      0.33257999999999999000	      0.43694063057594362000	     -3.44619814896684100000	     -6.32674544175608670000	      0.72650173550196095000	      0.95416886566754655000	     -0.37812325151253490000	      4.23322138669905000000	      9.53321826585198910000	      5.88909574391658190000	    -34.62165823259517300000	     21.93341448490821900000	      0.00000000000001476458	      0.00000000000001870947	     35.87878759671047400000	     -1.30535062076062510000	     -0.40514712045318479000	   -107.95510408654839000000	      4.97696516886174760000	      0.00000000000000592747	     -0.00000000000001838647	    -15.78148741314663400000	      6.13474291620165690000	      5.13931927810928450000	     -6.51664904569301220000	    -31.93407094260435700000	     -2.23709228527399070000	    117.10595309042890000000	     66.99053043379674900000	     -0.00000000000000116463	     -0.00000000000000750863	    -36.27149961268497700000	    -22.36554749247912400000	     -2.09076389122089260000	    122.77385984148891000000	     98.99551079194675700000	     -0.00000000000000244052	     -0.00000000000000074885
      0.33357999999999999000	      0.42739214600632153000	     -3.37153803237786360000	     -6.33994011464176840000	      0.72663296583100423000	      0.95474751506496058000	     -0.37799954686571630000	      3.88154377061767610000	      9.42499304731489400000	      5.98123164394529550000	    -34.30286990280469400000	     21.79333319194545000000	      0.00000000000001508180	      0.00000000000001893621	     36.04043066928842600000	     -1.22211873734299780000	     -0.40255744178444341000	   -107.63896121530965000000	      5.02399553910484100000	      0.00000000000000603211	     -0.00000000000001860631	    -15.73492697923173000000	      6.03514564053728450000	      5.27062207773869050000	     -6.49471891945304860000	    -31.85365338789484100000	     -2.12269856599714270000	    117.22239456258166000000	     67.03405916994165600000	     -0.00000000000000120433	     -0.00000000000000758084	    -36.35556654029943500000	    -22.39596119624506800000	     -2.07333500694329140000	    122.88933894272840000000	     98.97217711630619900000	     -0.00000000000000243317	     -0.00000000000000075820
      0.33457999999999999000	      0.41811638326525463000	     -3.29544833448138070000	     -6.35332563231672240000	      0.72677049121857396000	      0.95533511069687682000	     -0.37787448026633175000	      3.52880750469884760000	      9.31487684747734160000	      6.07344864575308210000	    -33.98113603036691900000	     21.64455612778038300000	      0.00000000000001547613	      0.00000000000001917729	     36.19716953761521000000	     -1.13838914342605160000	     -0.40174060190198740000	   -107.31586623742211000000	      5.07203514706215320000	      0.00000000000000613686	     -0.00000000000001885376	    -15.68776907147976400000	      5.93356561379214310000	      5.40150224402142510000	     -6.47415648480196990000	    -31.77442779516307400000	     -2.00538760592826960000	    117.33934090341971000000	     67.07917889472440700000	     -0.00000000000000124470	     -0.00000000000000766029	    -36.44024778345971800000	    -22.42827177820622000000	     -2.05542993019093420000	    123.00572658929629000000	     98.95300092234137400000	     -0.00000000000000242515	     -0.00000000000000076792
      0.33557999999999999000	      0.40914214931622095000	     -3.21799021544647030000	     -6.36684423358148340000	      0.72691422809653117000	      0.95593146744164859000	     -0.37774817813012673000	      3.17510285496359670000	      9.20289140679174620000	      6.16553432883774640000	    -33.65665203473671600000	     21.48694482503342200000	      0.00000000000001588757	      0.00000000000001939387	     36.34900106337748600000	     -1.05419698547423990000	     -0.40259657632575452000	   -106.98590430115280000000	      5.12097296445981700000	      0.00000000000000623912	     -0.00000000000001910768	    -15.64006214115001800000	      5.83008373958205530000	      5.53186989328846310000	     -6.45486032479128010000	    -31.69642404743916600000	     -1.88513649936304590000	    117.45670783802493000000	     67.12582659317826000000	     -0.00000000000000128288	     -0.00000000000000773892	    -36.52552999268542800000	    -22.46240416658017100000	     -2.03714576472075540000	    123.12291244298076000000	     98.93803647709346200000	     -0.00000000000000242356	     -0.00000000000000077648
